<svg xmlns="http://www.w3.org/2000/svg">
	<symbol id="html" viewBox="0 0 512 512" >
		<g>
			<path fill="#e34f26" d="M71 460L30 0h451l-41 460-185 52"/><path fill="#ef652a" d="M256 472l149-41 35-394H256"/><path fill="#ebebeb" d="M256 208h-75l-5-58h80V94H114l15 171h127zm-1 147l-63-17-4-45h-56l7 89 116 32z"/><path fill="#fff" d="M255 208v57h70l-7 73-63 17v59l116-32 16-174zm0-114v56h137l5-56z"/>
		</g>
	</symbol>
	<symbol id="css" viewBox="0 0 130 130">
		<g>
			<path fill="#1572B6" d="M18.814 114.123l-10.054-112.771h110.48l-10.064 112.754-45.243 12.543-45.119-12.526z"/><path fill="#33A9DC" d="M64.001 117.062l36.559-10.136 8.601-96.354h-45.16v106.49z"/><path fill="#fff" d="M64.001 51.429h18.302l1.264-14.163h-19.566v-13.831h34.681999999999995l-.332 3.711-3.4 38.114h-30.95v-13.831z"/><path fill="#EBEBEB" d="M64.083 87.349l-.061.018-15.403-4.159-.985-11.031h-13.882l1.937 21.717 28.331 7.863.063-.018v-14.39z"/><path fill="#fff" d="M81.127 64.675l-1.666 18.522-15.426 4.164v14.39l28.354-7.858.208-2.337 2.406-26.881h-13.876z"/><path fill="#EBEBEB" d="M64.048 23.435v13.831000000000001h-33.407999999999994l-.277-3.108-.63-7.012-.331-3.711h34.646zM64.001 51.431v13.831000000000001h-15.209l-.277-3.108-.631-7.012-.33-3.711h16.447z"/>
		</g>
	</symbol>
	<symbol id="css" viewBox="0 0 512 512" >
		<g>
			<path fill="#1572B6" d="M18.814 114.123l-10.054-112.771h110.48l-10.064 112.754-45.243 12.543-45.119-12.526z"/><path fill="#33A9DC" d="M64.001 117.062l36.559-10.136 8.601-96.354h-45.16v106.49z"/><path fill="#fff" d="M64.001 51.429h18.302l1.264-14.163h-19.566v-13.831h34.681999999999995l-.332 3.711-3.4 38.114h-30.95v-13.831z"/><path fill="#EBEBEB" d="M64.083 87.349l-.061.018-15.403-4.159-.985-11.031h-13.882l1.937 21.717 28.331 7.863.063-.018v-14.39z"/><path fill="#fff" d="M81.127 64.675l-1.666 18.522-15.426 4.164v14.39l28.354-7.858.208-2.337 2.406-26.881h-13.876z"/><path fill="#EBEBEB" d="M64.048 23.435v13.831000000000001h-33.407999999999994l-.277-3.108-.63-7.012-.331-3.711h34.646zM64.001 51.431v13.831000000000001h-15.209l-.277-3.108-.631-7.012-.33-3.711h16.447z"/>
		</g>
	</symbol>
	<symbol id="js" viewBox="0 0 256 256">
		<g>
			<path fill="#F7DF1E" d="M0 0h256v256H0V0z"/><path d="M67.312 213.932l19.59-11.856c3.78 6.701 7.218 12.371 15.465 12.371 7.905 0 12.89-3.092 12.89-15.12v-81.798h24.057v82.138c0 24.917-14.606 36.259-35.916 36.259-19.245 0-30.416-9.967-36.087-21.996M152.381 211.354l19.588-11.341c5.157 8.421 11.859 14.607 23.715 14.607 9.969 0 16.325-4.984 16.325-11.858 0-8.248-6.53-11.17-17.528-15.98l-6.013-2.58c-17.357-7.387-28.87-16.667-28.87-36.257 0-18.044 13.747-31.792 35.228-31.792 15.294 0 26.292 5.328 34.196 19.247L210.29 147.43c-4.125-7.389-8.591-10.31-15.465-10.31-7.046 0-11.514 4.468-11.514 10.31 0 7.217 4.468 10.14 14.778 14.608l6.014 2.577c20.45 8.765 31.963 17.7 31.963 37.804 0 21.654-17.012 33.51-39.867 33.51-22.339 0-36.774-10.654-43.819-24.574"/>
		</g>
	</symbol>
	<symbol id="scss" viewBox="0 0 30 30">
		<g>
			<path d="M16,2A14,14,0,1,1,2,16,14,14,0,0,1,16,2Z" style="fill:#c69;fill-rule:evenodd"/><path d="M24.782,7.992c-.634-2.486-4.757-3.3-8.659-1.918A19.605,19.605,0,0,0,9.479,9.885c-2.149,2.01-2.492,3.76-2.351,4.491.5,2.58,4.033,4.266,5.486,5.517V19.9c-.428.211-3.564,1.8-4.3,3.42-.774,1.712.123,2.94.718,3.105A4.4,4.4,0,0,0,13.78,24.5a4.824,4.824,0,0,0,.472-4.288,5.639,5.639,0,0,1,2.143-.123c2.456.287,2.938,1.82,2.846,2.462a1.62,1.62,0,0,1-.779,1.1c-.172.107-.225.143-.21.223.021.115.1.111.247.086a1.915,1.915,0,0,0,1.336-1.707c.059-1.5-1.382-3.186-3.934-3.143a6.736,6.736,0,0,0-2.189.3c-.035-.04-.071-.08-.108-.12-1.578-1.683-4.494-2.874-4.371-5.137.045-.823.331-2.989,5.6-5.617,4.32-2.153,7.778-1.56,8.376-.247.854,1.876-1.848,5.361-6.334,5.864a3.37,3.37,0,0,1-2.833-.718c-.236-.26-.271-.271-.359-.223-.143.079-.052.309,0,.445a2.659,2.659,0,0,0,1.621,1.274,8.592,8.592,0,0,0,5.258-.52C23.283,13.362,25.405,10.437,24.782,7.992ZM13.218,20.663a3.584,3.584,0,0,1-.029,2.092q-.035.106-.077.21t-.091.2a3.911,3.911,0,0,1-.647.943c-.813.887-1.95,1.223-2.437.94-.526-.305-.263-1.556.68-2.553a9.478,9.478,0,0,1,2.474-1.762l0,0Z" style="fill:#fff"/>
		</g>
	</symbol>
	<symbol id="github" viewBox="0 0 25 25">
		<g>
			<path fill-rule="evenodd" clip-rule="evenodd" d="M12 22C17.5228 22 22 17.5228 22 12C22 6.47715 17.5228 2 12 2C6.47715 2 2 6.47715 2 12C2 17.5228 6.47715 22 12 22ZM7.53366 7.08397L7.5316 7.08474C7.26002 7.18609 7.04549 7.40042 6.9441 7.67199C6.93539 7.69534 6.92686 7.71875 6.91854 7.7422C6.65067 8.49667 6.57954 9.31617 6.70595 10.1058C6.71242 10.1462 6.71942 10.1866 6.72693 10.2269C6.69805 10.2732 6.66999 10.3201 6.64278 10.3675C6.21126 11.1187 5.98982 11.9947 6.00036 12.8816C6.00148 14.7829 6.50083 16.1389 7.41451 17.0447C8.30946 17.9319 9.45151 18.2334 10.4004 18.3624L10.4308 18.3664C11.488 18.5237 12.509 18.5147 13.5629 18.3383L13.5643 18.3381C14.517 18.2225 15.6687 17.9357 16.5726 17.0531C17.4961 16.1514 17.9985 14.7917 17.9996 12.8815C18.0102 11.9947 17.7887 11.1187 17.3572 10.3675C17.33 10.32 17.3018 10.2731 17.2729 10.2266C17.2804 10.1864 17.2873 10.1461 17.2938 10.1058C17.4202 9.31256 17.3465 8.48924 17.0735 7.73278C17.0658 7.7113 17.0578 7.68981 17.0497 7.66833C16.948 7.39922 16.7354 7.18692 16.4661 7.08569L16.4649 7.08524L16.4637 7.08479L16.4613 7.08389L16.4564 7.08209L16.4462 7.07845L16.4248 7.07115C16.41 7.06627 16.3942 7.0614 16.3774 7.05664C16.3438 7.04709 16.3062 7.03799 16.2648 7.02999C15.7853 6.93737 14.9893 7.02349 13.8406 7.80507C13.8141 7.82311 13.7874 7.84153 13.7605 7.86033C13.6952 7.8444 13.6298 7.82938 13.5643 7.81524C12.5189 7.58974 11.4451 7.59231 10.4004 7.82295C10.3466 7.83481 10.293 7.84728 10.2394 7.86034C10.2125 7.84154 10.1858 7.82312 10.1592 7.80507C9.00585 7.02077 8.20666 6.93756 7.72867 7.03037C7.68807 7.03825 7.65128 7.04718 7.6183 7.05651C7.60182 7.06117 7.58633 7.06592 7.57182 7.07068L7.55081 7.0778L7.54087 7.08134L7.53604 7.0831L7.53366 7.08397Z" fill="#323232"/>
		</g>
	</symbol>
	<symbol id="website" fill="none" viewBox="0 0 24 24">
		<g>
			<path d="M9 21H12M15 21H12M12 21V18M12 18H19C20.1046 18 21 17.1046 21 16V7C21 5.89543 20.1046 5 19 5H5C3.89543 5 3 5.89543 3 7V16C3 17.1046 3.89543 18 5 18H12Z" stroke="#323232" stroke-width="2.3" stroke-linecap="round" stroke-linejoin="round"/>
		</g>
	</symbol>
</svg>

<svg xmlns="http://www.w3.org/2000/svg" width="2500" height="2500" preserveAspectRatio="xMinYMin meet" viewBox="0 0 256 256"><path fill="#F7DF1E" d="M0 0h256v256H0V0z"/><path d="M67.312 213.932l19.59-11.856c3.78 6.701 7.218 12.371 15.465 12.371 7.905 0 12.89-3.092 12.89-15.12v-81.798h24.057v82.138c0 24.917-14.606 36.259-35.916 36.259-19.245 0-30.416-9.967-36.087-21.996M152.381 211.354l19.588-11.341c5.157 8.421 11.859 14.607 23.715 14.607 9.969 0 16.325-4.984 16.325-11.858 0-8.248-6.53-11.17-17.528-15.98l-6.013-2.58c-17.357-7.387-28.87-16.667-28.87-36.257 0-18.044 13.747-31.792 35.228-31.792 15.294 0 26.292 5.328 34.196 19.247L210.29 147.43c-4.125-7.389-8.591-10.31-15.465-10.31-7.046 0-11.514 4.468-11.514 10.31 0 7.217 4.468 10.14 14.778 14.608l6.014 2.577c20.45 8.765 31.963 17.7 31.963 37.804 0 21.654-17.012 33.51-39.867 33.51-22.339 0-36.774-10.654-43.819-24.574"/></svg>