<svg xmlns="http://www.w3.org/2000/svg">
	<symbol id="html" viewBox="0 2 38 38" >
		<g>
		<!-- E44D26 -->
		<!-- F16529 -->
			<path d="M6 28L4 3H28L26 28L16 31L6 28Z" fill="#000"/>
<path d="M26 5H16V29.5L24 27L26 5Z" fill="#333"/>
<path d="M9.5 17.5L8.5 8H24L23.5 11H11.5L12 14.5H23L22 24L16 26L10 24L9.5 19H12.5L13 21.5L16 22.5L19 21.5L19.5 17.5H9.5Z" fill="white"/>
		</g>
	</symbol>
	<symbol id="react" viewBox="0 1 30 30" >
		<g>
  <title>react</title>
  <rect width="24" height="24" fill="none"/>
  <path d="M12,10.11A1.87,1.87,0,1,1,10.13,12,1.88,1.88,0,0,1,12,10.11M7.37,20c.63.38,2-.2,3.6-1.7a24.22,24.22,0,0,1-1.51-1.9A22.7,22.7,0,0,1,7.06,16c-.51,2.14-.32,3.61.31,4m.71-5.74-.29-.51a7.91,7.91,0,0,0-.29.86c.27.06.57.11.88.16l-.3-.51m6.54-.76.81-1.5-.81-1.5c-.3-.53-.62-1-.91-1.47C13.17,9,12.6,9,12,9s-1.17,0-1.71,0c-.29.47-.61.94-.91,1.47L8.57,12l.81,1.5c.3.53.62,1,.91,1.47.54,0,1.11,0,1.71,0s1.17,0,1.71,0c.29-.47.61-.94.91-1.47M12,6.78c-.19.22-.39.45-.59.72h1.18c-.2-.27-.4-.5-.59-.72m0,10.44c.19-.22.39-.45.59-.72H11.41c.2.27.4.5.59.72M16.62,4c-.62-.38-2,.2-3.59,1.7a24.22,24.22,0,0,1,1.51,1.9,22.7,22.7,0,0,1,2.4.36c.51-2.14.32-3.61-.32-4m-.7,5.74.29.51a7.91,7.91,0,0,0,.29-.86c-.27-.06-.57-.11-.88-.16l.3.51m1.45-7c1.47.84,1.63,3.05,1,5.63,2.54.75,4.37,2,4.37,3.68s-1.83,2.93-4.37,3.68c.62,2.58.46,4.79-1,5.63s-3.45-.12-5.37-1.95c-1.92,1.83-3.91,2.79-5.38,1.95s-1.62-3-1-5.63c-2.54-.75-4.37-2-4.37-3.68S3.08,9.07,5.62,8.32c-.62-2.58-.46-4.79,1-5.63s3.46.12,5.38,1.95c1.92-1.83,3.91-2.79,5.37-1.95M17.08,12A22.51,22.51,0,0,1,18,14.26c2.1-.63,3.28-1.53,3.28-2.26S20.07,10.37,18,9.74A22.51,22.51,0,0,1,17.08,12M6.92,12A22.51,22.51,0,0,1,6,9.74c-2.1.63-3.28,1.53-3.28,2.26S3.93,13.63,6,14.26A22.51,22.51,0,0,1,6.92,12m9,2.26-.3.51c.31,0,.61-.1.88-.16a7.91,7.91,0,0,0-.29-.86l-.29.51M13,18.3c1.59,1.5,3,2.08,3.59,1.7s.83-1.82.32-4a22.7,22.7,0,0,1-2.4.36A24.22,24.22,0,0,1,13,18.3M8.08,9.74l.3-.51c-.31,0-.61.1-.88.16a7.91,7.91,0,0,0,.29.86l.29-.51M11,5.7C9.38,4.2,8,3.62,7.37,4s-.82,1.82-.31,4a22.7,22.7,0,0,1,2.4-.36A24.22,24.22,0,0,1,11,5.7Z"/>
		</g>
	</symbol>
	<symbol id="css" viewBox="0 1 39 39" >
		<g>
		<!-- 1572b6 -->
		<!-- 33a9dc -->
			<polygon points="5.902 27.201 3.656 2 28.344 2 26.095 27.197 15.985 30 5.902 27.201" style="fill:#000"/><polygon points="16 27.858 24.17 25.593 26.092 4.061 16 4.061 16 27.858" style="fill:#333"/><polygon points="16 13.191 20.09 13.191 20.372 10.026 16 10.026 16 6.935 16.011 6.935 23.75 6.935 23.676 7.764 22.917 16.282 16 16.282 16 13.191" style="fill:#fff"/><polygon points="16.019 21.218 16.005 21.222 12.563 20.292 12.343 17.827 10.67 17.827 9.24 17.827 9.673 22.68 16.004 24.438 16.019 24.434 16.019 21.218" style="fill:#ebebeb"/><polygon points="19.827 16.151 19.455 20.29 16.008 21.22 16.008 24.436 22.344 22.68 22.391 22.158 22.928 16.151 19.827 16.151" style="fill:#fff"/><polygon points="16.011 6.935 16.011 8.855 16.011 10.018 16.011 10.026 8.555 10.026 8.555 10.026 8.545 10.026 8.483 9.331 8.342 7.764 8.268 6.935 16.011 6.935" style="fill:#ebebeb"/><polygon points="16 13.191 16 15.111 16 16.274 16 16.282 12.611 16.282 12.611 16.282 12.601 16.282 12.539 15.587 12.399 14.02 12.325 13.191 16 13.191" style="fill:#ebebeb"/>
		</g>
	</symbol>
	<symbol id="js" fill="none" viewBox="2 2 700 700">
	<!-- f7df1e -->
	<!-- white -->
		<g>
					<rect
		width="512" height="512"
		rx="15%"
		fill="#000"/><path fill="white" d="M324 370c10 17 24 29 47 29c20 0 33-10 33 -24c0-16 -13 -22 -35 -32l-12-5c-35-15 -58 -33 -58 -72c0-36 27 -64 70 -64c31 0 53 11 68 39l-37 24c-8-15 -17 -21 -31 -21c-14 0-23 9 -23 21c0 14 9 20 30 29l12 5c41 18 64 35 64 76c0 43-34 67 -80 67c-45 0-74 -21 -88 -49zm-170 4c8 13 14 25 31 25c16 0 26-6 26 -30V203h48v164c0 50-29 72 -72 72c-39 0-61 -20 -72 -44z"/>
		</g>
	</symbol>

	<symbol id="scss" viewBox="1 2 38 38">
		<g>
		<!-- c69 -->
			<path d="M16,2A14,14,0,1,1,2,16,14,14,0,0,1,16,2Z" style="fill:#000;fill-rule:evenodd"/><path d="M24.782,7.992c-.634-2.486-4.757-3.3-8.659-1.918A19.605,19.605,0,0,0,9.479,9.885c-2.149,2.01-2.492,3.76-2.351,4.491.5,2.58,4.033,4.266,5.486,5.517V19.9c-.428.211-3.564,1.8-4.3,3.42-.774,1.712.123,2.94.718,3.105A4.4,4.4,0,0,0,13.78,24.5a4.824,4.824,0,0,0,.472-4.288,5.639,5.639,0,0,1,2.143-.123c2.456.287,2.938,1.82,2.846,2.462a1.62,1.62,0,0,1-.779,1.1c-.172.107-.225.143-.21.223.021.115.1.111.247.086a1.915,1.915,0,0,0,1.336-1.707c.059-1.5-1.382-3.186-3.934-3.143a6.736,6.736,0,0,0-2.189.3c-.035-.04-.071-.08-.108-.12-1.578-1.683-4.494-2.874-4.371-5.137.045-.823.331-2.989,5.6-5.617,4.32-2.153,7.778-1.56,8.376-.247.854,1.876-1.848,5.361-6.334,5.864a3.37,3.37,0,0,1-2.833-.718c-.236-.26-.271-.271-.359-.223-.143.079-.052.309,0,.445a2.659,2.659,0,0,0,1.621,1.274,8.592,8.592,0,0,0,5.258-.52C23.283,13.362,25.405,10.437,24.782,7.992ZM13.218,20.663a3.584,3.584,0,0,1-.029,2.092q-.035.106-.077.21t-.091.2a3.911,3.911,0,0,1-.647.943c-.813.887-1.95,1.223-2.437.94-.526-.305-.263-1.556.68-2.553a9.478,9.478,0,0,1,2.474-1.762l0,0Z" style="fill:#fff"/>
		</g>
	</symbol>
	<symbol id="github" viewBox="0 0 25 25">
		<g>
			<path fill-rule="evenodd" clip-rule="evenodd" d="M12 22C17.5228 22 22 17.5228 22 12C22 6.47715 17.5228 2 12 2C6.47715 2 2 6.47715 2 12C2 17.5228 6.47715 22 12 22ZM7.53366 7.08397L7.5316 7.08474C7.26002 7.18609 7.04549 7.40042 6.9441 7.67199C6.93539 7.69534 6.92686 7.71875 6.91854 7.7422C6.65067 8.49667 6.57954 9.31617 6.70595 10.1058C6.71242 10.1462 6.71942 10.1866 6.72693 10.2269C6.69805 10.2732 6.66999 10.3201 6.64278 10.3675C6.21126 11.1187 5.98982 11.9947 6.00036 12.8816C6.00148 14.7829 6.50083 16.1389 7.41451 17.0447C8.30946 17.9319 9.45151 18.2334 10.4004 18.3624L10.4308 18.3664C11.488 18.5237 12.509 18.5147 13.5629 18.3383L13.5643 18.3381C14.517 18.2225 15.6687 17.9357 16.5726 17.0531C17.4961 16.1514 17.9985 14.7917 17.9996 12.8815C18.0102 11.9947 17.7887 11.1187 17.3572 10.3675C17.33 10.32 17.3018 10.2731 17.2729 10.2266C17.2804 10.1864 17.2873 10.1461 17.2938 10.1058C17.4202 9.31256 17.3465 8.48924 17.0735 7.73278C17.0658 7.7113 17.0578 7.68981 17.0497 7.66833C16.948 7.39922 16.7354 7.18692 16.4661 7.08569L16.4649 7.08524L16.4637 7.08479L16.4613 7.08389L16.4564 7.08209L16.4462 7.07845L16.4248 7.07115C16.41 7.06627 16.3942 7.0614 16.3774 7.05664C16.3438 7.04709 16.3062 7.03799 16.2648 7.02999C15.7853 6.93737 14.9893 7.02349 13.8406 7.80507C13.8141 7.82311 13.7874 7.84153 13.7605 7.86033C13.6952 7.8444 13.6298 7.82938 13.5643 7.81524C12.5189 7.58974 11.4451 7.59231 10.4004 7.82295C10.3466 7.83481 10.293 7.84728 10.2394 7.86034C10.2125 7.84154 10.1858 7.82312 10.1592 7.80507C9.00585 7.02077 8.20666 6.93756 7.72867 7.03037C7.68807 7.03825 7.65128 7.04718 7.6183 7.05651C7.60182 7.06117 7.58633 7.06592 7.57182 7.07068L7.55081 7.0778L7.54087 7.08134L7.53604 7.0831L7.53366 7.08397Z" fill="currentColor"/>
		</g>
	</symbol>
	<symbol id="website" fill="none" viewBox="0 0 24 24">
		<g>
			<path d="M9 21H12M15 21H12M12 21V18M12 18H19C20.1046 18 21 17.1046 21 16V7C21 5.89543 20.1046 5 19 5H5C3.89543 5 3 5.89543 3 7V16C3 17.1046 3.89543 18 5 18H12Z" stroke="currentColor" stroke-width="2.3" stroke-linecap="round" stroke-linejoin="round"/>
		</g>
	</symbol>
	<symbol id="email" fill="#54b3d6" viewBox="0 0 24 24">
		<g>
			<path d="M12 2.02c5.514 0 10 4.486 10 10s-4.486 10-10 10-10-4.486-10-10 4.486-10 10-10zm0-2c-6.627 0-12 5.373-12 12s5.373 12 12 12 12-5.373 12-12-5.373-12-12-12zm0 12.55l-5.992-4.57h11.983l-5.991 4.57zm0 1.288l-6-4.629v6.771h12v-6.771l-6 4.629z"/>
		</g>
	</symbol>
	<symbol id="close" fill="white" viewBox="0 0 24 24">
		<g>
			<path d="m12 10.93 5.719-5.72c.146-.146.339-.219.531-.219.404 0 .75.324.75.749 0 .193-.073.385-.219.532l-5.72 5.719 5.719 5.719c.147.147.22.339.22.531 0 .427-.349.75-.75.75-.192 0-.385-.073-.531-.219l-5.719-5.719-5.719 5.719c-.146.146-.339.219-.531.219-.401 0-.75-.323-.75-.75 0-.192.073-.384.22-.531l5.719-5.719-5.72-5.719c-.146-.147-.219-.339-.219-.532 0-.425.346-.749.75-.749.192 0 .385.073.531.219z"/>
		</g>
	</symbol>
	<symbol id="menu" fill="white" viewBox="0 0 24 24">
		<g>
			<path d="m11 16.745c0-.414.336-.75.75-.75h9.5c.414 0 .75.336.75.75s-.336.75-.75.75h-9.5c-.414 0-.75-.336-.75-.75zm-9-5c0-.414.336-.75.75-.75h18.5c.414 0 .75.336.75.75s-.336.75-.75.75h-18.5c-.414 0-.75-.336-.75-.75zm4-5c0-.414.336-.75.75-.75h14.5c.414 0 .75.336.75.75s-.336.75-.75.75h-14.5c-.414 0-.75-.336-.75-.75z" fill-rule="nonzero"/>
		</g>
	</symbol>
	<symbol id="telegram" fill="#54b3d6" viewBox="0 0 24 24">
		<g>
			<path id="telegram-5" d="M12,0c-6.627,0 -12,5.373 -12,12c0,6.627 5.373,12 12,12c6.627,0 12,-5.373 12,-12c0,-6.627 -5.373,-12 -12,-12Zm0,2c5.514,0 10,4.486 10,10c0,5.514 -4.486,10 -10,10c-5.514,0 -10,-4.486 -10,-10c0,-5.514 4.486,-10 10,-10Zm2.692,14.889c0.161,0.115 0.368,0.143 0.553,0.073c0.185,-0.07 0.322,-0.228 0.362,-0.42c0.435,-2.042 1.489,-7.211 1.884,-9.068c0.03,-0.14 -0.019,-0.285 -0.129,-0.379c-0.11,-0.093 -0.263,-0.12 -0.399,-0.07c-2.096,0.776 -8.553,3.198 -11.192,4.175c-0.168,0.062 -0.277,0.223 -0.271,0.4c0.006,0.177 0.125,0.33 0.296,0.381c1.184,0.354 2.738,0.847 2.738,0.847c0,0 0.725,2.193 1.104,3.308c0.047,0.139 0.157,0.25 0.301,0.287c0.145,0.038 0.298,-0.001 0.406,-0.103c0.608,-0.574 1.548,-1.461 1.548,-1.461c0,0 1.786,1.309 2.799,2.03Zm-5.505,-4.338l0.84,2.769l0.186,-1.754c0,0 3.243,-2.925 5.092,-4.593c0.055,-0.048 0.062,-0.13 0.017,-0.188c-0.045,-0.057 -0.126,-0.071 -0.188,-0.032c-2.143,1.368 -5.947,3.798 -5.947,3.798Z"/>
		</g>
	</symbol>
	<symbol id="vk" fill="#54b3d6" viewBox="0 0 24 24">
		<g>
			<path d="M12 2c5.514 0 10 4.486 10 10s-4.486 10-10 10-10-4.486-10-10 4.486-10 10-10zm0-2c-6.627 0-12 5.373-12 12s5.373 12 12 12 12-5.373 12-12-5.373-12-12-12zm.581 15.997c.304 0 .429-.204.425-.458-.016-.958.356-1.474 1.03-.802.744.744.896 1.26 1.801 1.26h1.601c.403 0 .562-.13.562-.334 0-.432-.711-1.194-1.312-1.752-.844-.783-.882-.802-.156-1.744.9-1.169 2.079-2.667 1.037-2.667h-1.991c-.387 0-.414.217-.551.542-.498 1.173-1.443 2.693-1.803 2.461-.377-.243-.204-1.203-.175-2.63.008-.377.006-.636-.571-.77-.314-.073-.621-.103-.903-.103-1.137 0-1.922.477-1.477.56.785.146.711 1.846.527 2.58-.319 1.278-1.518-1.012-2.018-2.152-.12-.275-.155-.488-.586-.488h-1.627c-.247 0-.394.08-.394.258 0 .301 1.479 3.36 2.892 4.885 1.379 1.487 2.742 1.354 3.689 1.354z"/>
		</g>
	</symbol>
	<symbol id="hh" fill="#D6001C" viewBox="-3 0 58 58" >
		<g>
		<path d="M24 48c13.255 0 24-10.745 24-24S37.255 0 24 0 0 10.745 0 24s10.745 24 24 24" fill="#fff"/><path d="M13.65 13.169v8.164c1.243-1.482 2.733-2.228 4.461-2.228.89 0 1.687.17 2.402.507.717.335 1.253.765 1.615 1.287.364.527.61 1.104.743 1.74.132.633.198 1.618.198 2.954v8.729h-3.862V26.46c0-1.56-.07-2.548-.217-2.968a1.917 1.917 0 00-.775-1c-.372-.251-.835-.375-1.394-.375-.64 0-1.214.16-1.713.478-.51.32-.876.798-1.108 1.437-.236.64-.354 1.585-.35 2.836l-.004 7.454H9.789V13.169h3.862m15.206 0v8.164c1.244-1.482 2.733-2.228 4.46-2.228.887 0 1.69.17 2.406.507.714.335 1.25.765 1.61 1.287a4.69 4.69 0 01.743 1.74c.133.633.199 1.618.199 2.954v8.729h-3.858V26.46c0-1.56-.073-2.548-.22-2.968a1.91 1.91 0 00-.777-1c-.368-.251-.835-.375-1.394-.375-.639 0-1.213.16-1.713.478-.503.32-.871.798-1.106 1.437-.232.64-.35 1.585-.35 2.836v7.454H25V13.169h3.857" fill="#454545"/>
		</g>
	</symbol>
</svg>